<?xml version="1.0" encoding="UTF-8" standalone="no"?>
<!-- Created with Inkscape (http://www.inkscape.org/) -->

<svg
   width="512"
   height="512"
   viewBox="0 0 512 512"
   version="1.1"
   id="svg1"
   xml:space="preserve"
   inkscape:version="1.4.2 (ebf0e940, 2025-05-08)"
   sodipodi:docname="hp.svg"
   xmlns:inkscape="http://www.inkscape.org/namespaces/inkscape"
   xmlns:sodipodi="http://sodipodi.sourceforge.net/DTD/sodipodi-0.dtd"
   xmlns="http://www.w3.org/2000/svg"
   xmlns:svg="http://www.w3.org/2000/svg"><sodipodi:namedview
     id="namedview1"
     pagecolor="#ffffff"
     bordercolor="#000000"
     borderopacity="0.25"
     inkscape:showpageshadow="2"
     inkscape:pageopacity="0.0"
     inkscape:pagecheckerboard="0"
     inkscape:deskcolor="#d1d1d1"
     inkscape:document-units="px"
     inkscape:zoom="0.65358385"
     inkscape:cx="119.34199"
     inkscape:cy="451.35754"
     inkscape:window-width="1920"
     inkscape:window-height="1021"
     inkscape:window-x="0"
     inkscape:window-y="31"
     inkscape:window-maximized="1"
     inkscape:current-layer="layer1" /><defs
     id="defs1" /><g
     inkscape:label="图层 1"
     inkscape:groupmode="layer"
     id="layer1"><path
       style="fill:#000000;stroke-width:0.657032"
       d="m 6,448.13217 v -26.60982 h 4.599227 4.599226 v 10.84104 10.84103 h 5.913291 5.913292 v -10.84103 -10.84104 h 4.599227 4.599225 V 448.13217 474.742 H 31.624263 27.025036 V 463.24392 451.74585 H 21.111744 15.198453 V 463.24392 474.742 H 10.599227 6 Z m 49.930819,15.93304 -0.0039,-10.67678 -2.699693,-6.89885 c -1.484815,-3.79436 -4.267216,-10.96422 -6.183089,-15.93303 l -3.483408,-9.0342 4.708419,0.007 4.708419,0.007 3.254662,9.82543 c 1.790058,5.40397 3.416213,9.67272 3.613677,9.48613 0.197465,-0.18661 1.701464,-4.53675 3.342219,-9.66698 l 2.983203,-9.32771 4.775876,-0.19384 c 4.418845,-0.17934 4.72899,-0.10566 4.148858,0.98554 -0.344864,0.64867 -2.875542,7.46425 -5.623725,15.14574 l -4.996415,13.96486 v 11.49367 11.49367 h -4.270711 -4.27071 z m 26.553333,-15.93304 0.01183,-26.60982 h 8.851054 c 7.609277,0 9.245394,0.19091 11.661854,1.36068 4.71894,2.28442 7.03651,7.59924 6.99899,16.05069 -0.0486,10.96877 -5.06847,16.09729 -15.755972,16.09729 h -3.494729 v 9.85549 9.8555 h -4.142274 -4.142273 z m 16.864983,-2.90611 c 1.735265,-1.73526 1.920555,-2.33951 1.920555,-6.26291 0,-4.86237 -1.19959,-8.44024 -3.186341,-9.50352 -0.729569,-0.39046 -2.676421,-0.70992 -4.326335,-0.70992 h -2.999839 v 9.19846 9.19846 h 3.335701 c 2.810784,0 3.637922,-0.30222 5.256259,-1.92057 z m 18.346365,2.90611 v -26.60982 h 11.49806 11.49807 l 6.6e-4,3.77793 6.6e-4,3.77795 h -7.06358 -7.06393 l -0.18649,7.06309 -0.18648,7.0631 h 6.59254 6.59256 v 4.27072 4.27071 h -6.59185 -6.59183 l 0.18578,7.31048 0.18577,7.31047 7.39161,-0.11879 7.39162,-0.11879 v 4.30644 4.30634 H 129.52208 117.6955 Z m 31.86607,-3.9e-4 v -26.60976 l 8.54142,0.004 c 9.83019,0.004 12.61508,0.60083 15.77965,3.37936 5.86303,5.14783 5.70629,19.85549 -0.26639,24.99438 l -2.52765,2.1748 3.85509,10.184 c 2.12029,5.6012 4.023,10.70143 4.22824,11.33382 0.33125,1.02064 -0.14042,1.14981 -4.19887,1.14981 h -4.57202 l -2.47933,-7.0631 c -5.29023,-15.07095 -4.71539,-13.96208 -7.2378,-13.96208 h -2.25241 v 10.51252 10.51253 l -4.43496,-2.2e-4 -4.43497,-2.1e-4 z m 16.34309,-2.92481 c 2.27456,-0.86479 3.2443,-2.99678 3.29782,-7.25025 0.0847,-6.7274 -2.02822,-9.20701 -7.84524,-9.20701 h -2.92574 v 8.54142 8.54142 h 2.91388 c 1.60264,0 3.6543,-0.28151 4.55928,-0.62558 z m 20.77924,2.9252 v -26.60982 l 8.70568,0.0145 c 7.02172,0.0118 9.2193,0.24774 11.361,1.22057 3.14837,1.43011 5.7692,4.35524 6.97289,7.78252 1.10649,3.15054 1.08376,12.21749 -0.0389,15.51331 -1.99351,5.85231 -7.20329,8.97781 -14.96482,8.97781 h -3.49443 v 9.85549 9.8555 h -4.27071 -4.27071 z m 17.13339,-2.90611 c 1.76338,-1.7634 1.92055,-2.30371 1.92055,-6.60295 0,-7.43806 -1.95529,-9.8734 -7.92717,-9.8734 h -2.58535 v 9.19846 9.19846 h 3.33571 c 2.81078,0 3.63792,-0.30222 5.25626,-1.92057 z m 11.43652,28.03762 c 1.34346,-5.79789 10.40251,-46.55975 11.17651,-50.28961 l 0.44864,-2.16195 5.00943,0.19085 5.00942,0.19086 5.12783,21.68207 c 2.82031,11.92515 5.66173,23.9735 6.31427,26.7741 l 1.18644,5.092 h -4.47038 c -4.10468,0 -4.49613,-0.1209 -4.7851,-1.47832 -0.17311,-0.81308 -0.71596,-3.40015 -1.20634,-5.74904 l -0.89159,-4.27072 -6.27446,-0.18699 -6.27446,-0.187 -0.42631,2.66607 c -0.23448,1.46634 -0.7419,4.13754 -1.1276,5.93603 l -0.70129,3.26997 h -4.22878 c -4.04889,0 -4.21421,-0.0628 -3.88623,-1.47832 z m 21.36455,-18.62649 c 0,-1.40041 -4.21216,-22.37166 -4.57607,-22.78313 -0.36085,-0.40798 -2.54907,10.06443 -4.46529,21.37011 l -0.30624,1.80684 h 4.6738 c 2.57059,0 4.6738,-0.17723 4.6738,-0.39382 z m 19.05393,-6.50502 v -26.60982 h 8.25048 c 4.53776,0 9.59034,0.33738 11.22796,0.74973 3.80757,0.95875 7.07426,4.2516 8.04589,8.11029 0.95471,3.79148 0.92871,11.01437 -0.0516,14.28575 -0.7907,2.63912 -3.37367,5.94653 -5.08904,6.51637 -0.73932,0.24559 -0.0118,2.76635 3.39787,11.77076 l 4.33866,11.45823 -4.31828,0.19654 c -2.37507,0.10815 -4.51935,-0.0396 -4.76509,-0.32851 -0.24574,-0.28878 -2.02847,-5.03395 -3.96162,-10.54482 l -3.51473,-10.01974 h -2.50959 -2.50957 v 10.51252 10.51253 h -4.27071 -4.27071 z m 17.50221,-3.85368 c 1.55014,-1.33337 1.84518,-2.15849 2.07773,-5.81057 0.45154,-7.09131 -1.74459,-9.71821 -8.12464,-9.71821 h -2.91387 v 8.54142 8.54142 h 3.57704 c 2.81393,0 3.96248,-0.33154 5.38374,-1.55406 z m 16.24407,29.95353 c 0.34697,-0.56139 5.58217,-23.21977 9.29422,-40.22605 1.3015,-5.96257 2.51799,-11.35846 2.70332,-11.99085 0.28152,-0.96048 1.13384,-1.1498 5.17619,-1.1498 4.0399,0 4.89592,0.1899 5.18265,1.1498 0.45694,1.52972 5.06804,21.67426 8.61012,37.61512 1.56579,7.04669 3.05216,13.32956 3.30304,13.96195 0.40816,1.02882 -0.0266,1.14981 -4.13187,1.14981 h -4.58801 l -1.14857,-5.91329 -1.14857,-5.9133 h -6.09001 c -4.42486,0 -6.18059,0.23611 -6.42137,0.86354 -0.18226,0.47496 -0.69795,3.13595 -1.146,5.9133 l -0.8146,5.04975 h -4.54786 c -2.50132,0 -4.40603,-0.22949 -4.23268,-0.50998 z m 20.07291,-28.89224 c -3.2401,-17.29051 -3.05856,-17.04707 -4.77743,-6.40606 -0.58372,3.61367 -1.47431,8.71389 -1.97908,11.33381 l -0.91775,4.76348 h 4.74516 4.74517 z m 20.46682,2.46388 -0.10421,-26.93834 h 6.22899 c 5.37787,0 6.27075,0.15711 6.53472,1.1498 0.16816,0.63239 2.01148,8.18157 4.09625,16.77595 2.08478,8.59438 3.98518,15.39468 4.22311,15.11176 0.23792,-0.28292 2.17862,-7.8321 4.31265,-16.77596 l 3.88004,-16.26155 h 5.76156 5.76155 v 26.93834 26.93834 h -4.2707 -4.27072 l -0.0417,-19.21821 c -0.0229,-10.57002 -0.27228,-18.62688 -0.55416,-17.90415 -0.28189,0.72275 -2.08065,7.59695 -3.99725,15.27602 l -3.48475,13.96195 h -3.35753 -3.35751 l -3.88297,-14.29047 c -2.13563,-7.85975 -4.12021,-14.73395 -4.41017,-15.27601 -0.28996,-0.54205 -0.5362,7.66264 -0.54719,18.23266 l -0.0199,19.21821 h -4.19793 -4.19792 z m 49.89312,0.32851 v -26.60982 h 11.49806 11.49807 l 9.8e-4,3.77793 9.7e-4,3.77795 -7.22869,-0.20525 -7.22865,-0.20525 v 7.26835 7.26834 h 6.57033 6.57032 v 4.27072 4.27071 h -6.59183 -6.59185 l 0.18576,7.39162 0.18578,7.39162 h 7.39247 7.39248 l -6.6e-4,4.10645 -9.8e-4,4.10646 H 391.6774 379.85082 Z m 39.2662,3.77794 -0.17278,-22.83188 h -4.76309 -4.76309 l -4e-4,-3.77795 -3.9e-4,-3.77793 h 14.15899 14.15898 l -0.19705,3.70361 -0.19704,3.70363 -4.59923,0.0744 -4.59923,0.0744 -0.17277,22.83189 -0.17278,22.83177 h -4.25367 -4.25368 z m 25.45148,-3.77802 v -26.60976 h 11.27301 l 11.273,2e-5 0.22507,3.61457 0.22505,3.61458 -7.02082,-6.6e-4 -7.02083,-6.6e-4 -0.20653,6.95634 c -0.11366,3.82596 -0.0833,7.07827 0.0673,7.22735 0.15056,0.14906 3.1072,0.27041 6.57032,0.26965 l 6.29655,-9.8e-4 -0.22031,4.2721 -0.22032,4.27209 -6.35001,-9.7e-4 -6.35,-9.8e-4 0.20524,7.22868 0.20524,7.22812 h 7.18633 7.18637 v 4.27071 4.27071 l -11.66232,-7e-5 -11.66233,-8e-5 z m 31.71631,-1.4e-4 -0.17875,-26.61005 8.08621,2.2e-4 c 9.65142,2.7e-4 13.28086,0.79563 16.20189,3.5505 5.81177,5.48122 5.68131,19.83626 -0.22536,24.79523 l -2.50859,2.10609 4.16878,10.89124 c 2.29283,5.9902 4.16951,11.11302 4.17041,11.38404 6.5e-4,0.27103 -2.03587,0.49278 -4.52612,0.49278 h -4.52776 l -2.3772,-6.73458 c -1.30749,-3.70404 -2.9183,-8.36075 -3.5796,-10.34827 -1.14016,-3.42675 -1.32677,-3.62423 -3.60754,-3.81761 l -2.40519,-0.20392 v 10.55218 10.5522 h -4.25621 -4.25622 z m 16.63251,-3.14158 c 1.87202,-1.4373 2.57119,-3.59853 2.57119,-7.94792 0,-5.87185 -1.53212,-7.71074 -6.78751,-8.14657 l -3.72501,-0.30889 v 8.62277 8.62279 l 3.44943,-0.0209 c 1.89717,-0.0118 3.91853,-0.38108 4.4919,-0.82129 z M 70.641157,383.14683 c -7.152337,-1.74201 -13.981806,-7.72015 -16.80673,-14.71167 l -1.513646,-3.74615 V 212.91445 61.139884 l 1.891939,-4.096139 c 2.287747,-4.953087 6.829772,-9.416929 12.090985,-11.882858 L 70.060655,43.4 H 255.01526 439.96987 l 4.27072,2.033221 c 4.98508,2.37332 9.25561,6.409959 11.7193,11.077447 l 1.74986,3.315152 V 213.24296 366.6601 l -2.25352,4.1564 c -2.69671,4.97384 -6.11443,8.10372 -11.87268,10.87275 l -4.27071,2.05371 -182.65499,0.1113 C 112.76104,383.94196 73.289522,383.79186 70.641157,383.1468 Z M 440.24191,371.61667 c 3.15795,-1.61107 5.72561,-4.62004 6.63773,-7.77857 0.49263,-1.70588 0.64531,-47.17694 0.51027,-151.96541 l -0.19267,-149.531172 -1.8802,-2.713058 c -1.06935,-1.543081 -3.07136,-3.289724 -4.6424,-4.050246 -2.74715,-1.329873 -3.41558,-1.337173 -122.47009,-1.337173 H 198.49669 l 0.17115,59.461519 0.17115,59.46151 h -5.25625 -5.25626 l 0.17115,-59.46151 0.17115,-59.461519 h -58.17535 c -47.37444,0 -58.569812,0.16481 -60.299883,0.887677 -2.808183,1.173336 -6.134633,5.040374 -6.992231,8.128573 -1.017151,3.662721 -0.967059,297.470999 0.05125,300.512379 1.165339,3.48056 3.773639,6.5319 6.731835,7.87528 2.620285,1.18993 8.381289,1.22857 185.221309,1.24255 179.87127,0.0142 182.55344,-0.004 185.03623,-1.27083 z M 99.968571,350.3712 c -3.285832,-1.65307 -3.278065,-1.55711 -3.28842,-40.61744 l -0.0092,-36.53831 -3.85866,-0.34989 c -4.199316,-0.38078 -6.635435,-1.61356 -7.915636,-4.00563 -1.179662,-2.20422 -1.317547,-18.0042 -0.174613,-20.0081 1.432567,-2.51169 4.679622,-4.06611 8.499489,-4.06883 l 3.448933,-0.003 v -27.17825 c 0,-26.50063 0.03391,-27.22142 1.361753,-28.90944 1.923725,-2.44563 5.865293,-2.44563 7.789013,0 1.32781,1.68802 1.36176,2.4088 1.36176,28.90944 V 244.78 h 3.31778 c 4.03125,0 6.83838,1.34725 8.16916,3.92068 1.50302,2.90652 1.41223,17.84072 -0.12431,20.44179 -1.44567,2.44732 -4.53903,3.88993 -8.34108,3.88993 h -3.02155 v 37.08572 37.08569 l -1.47833,1.62613 c -1.89747,2.08717 -3.69189,2.56915 -5.73609,1.54073 z m 11.813639,-91.46447 v -2.29961 h -9.85548 -9.855491 v 2.29961 2.29963 h 9.855491 9.85548 z m 40.31819,91.55905 c -2.58645,-1.27894 -2.86734,-3.19571 -2.86734,-19.5659 v -15.65891 l -4.03742,-0.29204 c -3.63982,-0.26328 -4.25449,-0.52893 -6.2418,-2.69746 l -2.2044,-2.4054 0.003,-8.38682 c 9.8e-4,-7.25281 0.18175,-8.68089 1.32844,-10.56171 1.54345,-2.53183 4.75315,-4.06691 8.50331,-4.06691 h 2.64924 v -47.93248 c 0,-33.72935 0.21615,-48.40689 0.72947,-49.53351 1.4168,-3.10952 5.84994,-3.61966 8.2654,-0.95109 1.12144,1.23893 1.19918,4.07735 1.36576,49.8654 l 0.17665,48.55168 h 2.63685 c 3.73844,0 6.94914,1.5378 8.49109,4.06691 1.13977,1.86946 1.32635,3.30985 1.32845,10.25618 0.003,9.03337 -0.66967,11.25275 -3.91823,12.93263 -1.06003,0.54817 -3.42036,0.99668 -5.24514,0.99668 h -3.31778 v 16.06066 c 0,15.72727 -0.0307,16.09501 -1.47833,17.71516 -1.73418,1.94084 -4.1949,2.58203 -6.16685,1.60693 z m 12.1198,-49.46829 0.20392,-2.34027 h -9.89515 -9.89514 l -8e-5,2.46388 -8e-5,2.46386 9.69131,-0.12365 9.6913,-0.12365 z m 41.7505,49.71898 c -0.77533,-0.12484 -1.95799,-0.83277 -2.62812,-1.57305 -1.14146,-1.26093 -1.2285,-3.13676 -1.37786,-29.69401 l -0.15945,-28.34807 -3.68319,-0.41278 c -6.99382,-0.78383 -8.73589,-3.584 -8.73589,-14.04194 0,-3.61368 0.3529,-7.57747 0.78421,-8.8084 1.10081,-3.14164 3.7903,-4.91597 8.05396,-5.31339 l 3.57147,-0.33292 0.16416,-36.23243 c 0.15669,-34.58198 0.22119,-36.29541 1.4158,-37.61512 1.87815,-2.07481 5.80671,-1.89396 7.57062,0.34849 1.34005,1.70362 1.36175,2.30527 1.36175,37.77938 v 36.04819 h 3.67656 c 4.17674,0 6.76989,1.2266 8.38949,3.96837 1.58428,2.68198 1.55017,17.69143 -0.0463,20.39411 -1.48247,2.50948 -4.5591,3.88993 -8.66967,3.88993 h -3.35012 v 27.89297 c 0,19.44855 -0.22633,28.38971 -0.74759,29.53377 -0.80189,1.75993 -3.3017,2.88549 -5.58987,2.5169 z m 11.59372,-74.06985 V 274.347 h -10.184 -10.184 v 2.29962 2.29962 h 10.184 10.184 z m 40.73601,73.94781 c -0.99349,-0.24073 -2.09654,-1.29926 -2.79138,-2.67869 -1.06569,-2.11575 -1.14885,-6.16544 -1.1498,-55.99311 l -9.8e-4,-53.71242 h -3.31779 c -4.03124,0 -6.83838,-1.34725 -8.16915,-3.9207 -1.38378,-2.67593 -1.41335,-17.67793 -0.04,-20.33354 1.22502,-2.36887 4.6722,-3.99817 8.45918,-3.99817 h 2.97534 l 0.21052,-10.16758 c 0.18931,-9.14426 0.34277,-10.29625 1.52457,-11.44621 2.14646,-2.08862 5.55609,-2.06344 7.53027,0.0556 1.22727,1.31731 1.33967,2.28207 1.33967,11.49807 v 10.06015 h 3.30627 c 4.10021,0 7.24964,1.26522 8.71453,3.50091 0.92059,1.40498 1.11984,3.34814 1.11984,10.92033 v 9.2112 l -1.89413,2.1199 c -1.73621,1.94314 -2.28397,2.1419 -6.57032,2.38412 l -4.67619,0.26422 v 54.50276 c 0,34.29518 -0.23847,54.94834 -0.64317,55.70454 -0.8165,1.52562 -3.79538,2.5452 -5.92715,2.02864 z m 11.16955,-126.51042 v -2.29961 h -9.52697 -9.52697 v 2.29961 2.29962 h 9.52697 9.52697 z m 61.50988,126.4182 c -4.16097,-0.99836 -10.0415,-4.49584 -13.15418,-7.82353 -12.93589,-13.82953 -8.59477,-35.33709 8.80612,-43.62896 l 4.2707,-2.03508 h 37.46466 37.46466 l 4.31569,2.12459 c 5.37811,2.64765 10.47721,7.89952 13.08231,13.47432 6.27436,13.42677 0.19023,29.62712 -13.68565,36.44118 l -3.73998,1.83658 -36.13678,0.11144 c -20.49096,0.0632 -37.24117,-0.15353 -38.68755,-0.50056 z m 75.26873,-11.92961 c 10.38575,-6.10524 11.9487,-19.09338 3.24403,-26.95756 -4.8839,-4.41229 -5.62694,-4.48641 -42.86578,-4.27541 l -33.09621,0.18753 -3.53434,1.95748 c -12.85055,7.11724 -11.79543,25.20085 1.76496,30.2497 1.96244,0.73067 9.02224,0.87866 36.92062,0.77394 l 34.49419,-0.12944 z m -81.0201,-65.40394 c -5.59045,-2.91127 -9.16429,-10.03664 -8.02583,-16.00155 2.44306,-12.8005 18.45677,-17.28114 26.99741,-7.55388 2.69569,3.07023 3.65388,6.30227 3.33819,11.26006 -0.71998,11.30704 -12.13114,17.59596 -22.30977,12.29537 z m 85.14507,-8.31876 c -3.0991,-3.09909 -1.63257,-8.21018 2.66523,-9.28885 0.92577,-0.23236 3.45794,-0.2941 5.62701,-0.1372 4.48368,0.32432 6.23844,1.57803 6.91025,4.93717 0.3542,1.77097 0.10303,2.42511 -1.57605,4.10418 -1.87582,1.8758 -2.30233,1.99742 -7.00558,1.99742 -4.44125,0 -5.19069,-0.18255 -6.62086,-1.61272 z m -36.55042,-0.38342 c -0.60528,-0.35318 -1.42724,-1.63208 -1.82656,-2.84203 -1.26868,-3.84418 0.74242,-6.79515 4.86337,-7.13621 l 1.6774,-0.13882 v -16.56827 c 0,-9.11252 0.28245,-17.3112 0.6277,-18.21924 1.41688,-3.72666 5.71203,-4.57845 8.58747,-1.703 1.22649,1.22649 1.29735,2.24815 1.29735,18.70872 V 253.979 h 1.69312 c 2.06803,0 5.53424,3.28089 5.53424,5.23835 0,1.90395 -1.68723,5.02464 -2.98609,5.52306 -1.72063,0.66028 -18.26588,0.42746 -19.468,-0.27393 z m 33.32422,-39.6366 c -2.25383,-2.25385 -2.27984,-5.78223 -0.0589,-8.0031 1.4953,-1.4953 2.08679,-1.61272 8.12429,-1.61272 5.59272,0 6.75587,0.19216 8.24277,1.36175 2.1536,1.69404 2.3863,5.5673 0.47632,7.92819 -1.15025,1.42177 -1.83258,1.56972 -8.1838,1.77434 -6.68766,0.21545 -6.98715,0.16502 -8.60062,-1.44845 z m -86.78723,-0.71601 c -2.26057,-2.26057 -2.14266,-5.1858 0.30783,-7.63628 l 1.92055,-1.92056 h 9.61015 c 12.22285,0 14.1441,0.79848 14.1441,5.87842 0,1.00581 -0.61278,2.60779 -1.36174,3.55995 l -1.36176,1.73119 h -10.82322 c -10.61526,0 -10.85419,-0.0311 -12.43591,-1.61272 z m -7.64351,-32.42414 -1.8536,-1.55973 V 136.04161 81.953223 l 2.03491,-1.712266 2.03491,-1.712267 53.54136,0.175533 53.54138,0.175546 1.58553,1.843476 1.58554,1.843476 v 53.094409 c 0,52.47485 -0.0156,53.11433 -1.34253,54.80118 -0.76513,0.97268 -2.24871,1.84983 -3.44942,2.03944 -1.15879,0.18298 -25.44334,0.42606 -53.96568,0.5402 l -51.85878,0.20749 z M 414.0171,135.7131 V 89.720808 h -46.32078 -46.32078 v 45.992292 45.99229 h 46.32078 46.32078 z m -54.60371,26.03533 c -10.14189,-3.58018 -16.53473,-10.96118 -18.4599,-21.31336 -2.53965,-13.65627 7.92313,-28.043 22.80163,-31.35316 3.79998,-0.84542 5.52321,-0.92052 8.49891,-0.37044 15.59502,2.88291 25.84945,18.81849 21.81467,33.90046 -1.83025,6.84151 -6.61504,13.40826 -12.34094,16.93696 -6.25066,3.85209 -15.14853,4.72916 -22.31437,2.19954 z m -263.160336,2.85461 c -3.942681,-1.21735 -8.258792,-4.75931 -10.339351,-8.48484 -3.344399,-5.98859 -2.563136,-13.68274 1.931754,-19.0246 9.481135,-11.2677 28.350953,-5.47075 29.673633,9.11593 0.67898,7.48799 -2.25785,13.38857 -8.29838,16.67275 -3.79559,2.06363 -9.433992,2.81184 -12.967656,1.72076 z m 51.701126,-0.41855 c -4.26141,-1.56303 -8.89184,-6.46679 -10.16977,-10.77005 -1.36568,-4.59873 -1.30545,-7.07362 0.27487,-11.29742 3.26881,-8.73666 13.92799,-13.45361 22.05777,-9.76108 11.15925,5.06852 14.25277,18.37271 6.31504,27.15885 -1.27939,1.41612 -3.5203,3.18399 -4.9798,3.92856 -3.52779,1.79975 -9.68957,2.13808 -13.49811,0.74114 z m 71.73178,-14.45642 c -1.11096,-0.44698 -2.77857,-3.74282 -2.77857,-5.49147 0,-0.76847 0.86425,-2.26148 1.92056,-3.31778 l 1.92055,-1.92056 34.05197,0.009 c 26.1302,0.008 34.43408,0.20297 35.69454,0.84052 3.37254,1.70586 3.96603,6.00735 1.23354,8.94036 -1.27501,1.36856 -1.54918,1.37859 -36.24611,1.32711 -19.22876,-0.0285 -35.33717,-0.20306 -35.79648,-0.38787 z m 0.70916,-29.79006 c -2.33062,-0.93878 -3.69885,-3.5901 -3.20665,-6.21372 0.83331,-4.44195 -0.49028,-4.29249 38.01618,-4.29249 21.39087,0 35.18107,0.24689 35.92148,0.64315 0.66096,0.35375 1.52194,1.56165 1.91328,2.68423 0.85701,2.45842 -0.36352,6.01797 -2.44558,7.13225 -1.63567,0.87537 -68.03176,0.91943 -70.19871,0.0465 z M 93.71382,111.18993 C 83.382985,106.16715 80.57341,93.742926 87.846851,85.245535 c 7.578986,-8.854343 21.814899,-7.668176 27.659349,2.304634 2.28563,3.900121 2.81609,10.195323 1.21287,14.393311 -2.52027,6.59925 -7.60675,10.15956 -15.12086,10.58392 -3.866492,0.21836 -5.122607,0.005 -7.88439,-1.33747 z m 53.21962,0.014 c -6.64559,-3.20291 -9.81646,-8.12607 -9.81646,-15.241219 0,-5.235499 1.34987,-8.465642 4.99539,-11.953672 8.42102,-8.057166 21.67405,-5.554173 27.20298,5.137628 2.57323,4.976051 1.69393,12.525743 -2.02705,17.404203 -4.33819,5.68768 -13.74598,7.83827 -20.35486,4.65306 z m 72.54514,-21.668207 c -3.02171,-2.319996 -3.28171,-5.775751 -0.63376,-8.423686 l 1.93742,-1.937431 34.83852,0.18113 34.83851,0.181131 1.46336,1.463725 c 2.15615,2.156735 1.9941,5.805896 -0.3473,7.819885 l -1.81063,1.557431 -34.62181,-0.0209 c -26.17974,-0.01577 -34.87602,-0.216059 -35.66431,-0.821291 z"
       id="path1" /></g></svg>
